<?xml version="1.0" encoding="utf-8"?>
<!-- Generator: Adobe Illustrator 17.0.0, SVG Export Plug-In . SVG Version: 6.00 Build 0)  -->
<!DOCTYPE svg PUBLIC "-//W3C//DTD SVG 1.1//EN" "http://www.w3.org/Graphics/SVG/1.1/DTD/svg11.dtd">
<svg version="1.1" id="Objects" xmlns="http://www.w3.org/2000/svg" xmlns:xlink="http://www.w3.org/1999/xlink" x="0px" y="0px"
	 width="500px" height="406px" viewBox="0 0 500 406" enable-background="new 0 0 500 406" xml:space="preserve">
<g id="Objects">
	<g>
		<g>
			<g>
				<defs>
					<rect id="SVGID_1_" x="-37" y="0.267" width="537" height="405.733"/>
				</defs>
				<clipPath id="SVGID_2_">
					<use xlink:href="#SVGID_1_"  overflow="visible"/>
				</clipPath>
			</g>
		</g>
	</g>
	<g>
		<g>
			<g>
				<defs>
					<rect id="SVGID_3_" x="-37" y="0.267" width="537" height="405.733"/>
				</defs>
				<clipPath id="SVGID_4_">
					<use xlink:href="#SVGID_3_"  overflow="visible"/>
				</clipPath>
				
					<linearGradient id="SVGID_5_" gradientUnits="userSpaceOnUse" x1="371.8727" y1="741.0944" x2="954.425" y2="602.3012" gradientTransform="matrix(-0.5056 0.8628 0.8628 0.5056 -130.4083 17.5272)">
					<stop  offset="0" style="stop-color:#EBF9FC"/>
					<stop  offset="1" style="stop-color:#FFFFFF"/>
				</linearGradient>
				<path clip-path="url(#SVGID_4_)" fill="url(#SVGID_5_)" d="M565.651,124.027c142.775,3.897,197.383,237.042,128.449,374.158
					s-64.158,311.151,33.735,499.94s-41.397,625.786-352.619,263.131s75.312-518.367,12.653-683.375S-29.941,228.895,65.729-15.902
					s188.18,44.033,268.879,115.634C415.307,171.332,444.706,120.725,565.651,124.027z"/>
				<g clip-path="url(#SVGID_4_)">
					<path fill="#EF2674" d="M325.958,159.673c-7.724-6.405-19.178-5.335-25.583,2.389c-7.724-6.405-19.178-5.335-25.583,2.389
						c-6.405,7.724-5.335,19.178,2.389,25.583l27.972,23.194l23.194-27.972C334.752,177.531,333.683,166.077,325.958,159.673z"/>
					<linearGradient id="SVGID_6_" gradientUnits="userSpaceOnUse" x1="231.8349" y1="67.8451" x2="328.1407" y2="120.2467">
						<stop  offset="0" style="stop-color:#FFFFFF"/>
						<stop  offset="1" style="stop-color:#8ADFFE"/>
					</linearGradient>
					<path fill="url(#SVGID_6_)" d="M350.143,98.669c0.427-1.471,0.668-3.021,0.668-4.63c0-9.163-7.428-16.591-16.591-16.591
						c-0.345,0-0.682,0.031-1.022,0.052c-5.223-8.88-14.872-14.843-25.919-14.843c-12.583,0-23.353,7.735-27.832,18.707
						c-2.299-0.89-4.789-1.397-7.402-1.397c-8.769,0-16.234,5.507-19.178,13.243c-8.119,1.895-14.173,9.162-14.173,17.858
						c0,10.137,8.218,18.355,18.355,18.355h79.587c10.137,0,18.355-8.218,18.355-18.355
						C354.992,106.281,353.144,101.937,350.143,98.669z"/>
					
						<linearGradient id="SVGID_7_" gradientUnits="userSpaceOnUse" x1="622.0325" y1="225.3256" x2="673.9264" y2="253.562" gradientTransform="matrix(-1 0 0 1 872.7548 0)">
						<stop  offset="0" style="stop-color:#8ADFFE"/>
						<stop  offset="1" style="stop-color:#FFFFFF"/>
					</linearGradient>
					<path fill="url(#SVGID_7_)" d="M186.972,241.935c-0.23-0.792-0.36-1.628-0.36-2.495c0-4.937,4.002-8.94,8.94-8.94
						c0.186,0,0.368,0.017,0.551,0.028c2.814-4.785,8.014-7.998,13.966-7.998c6.78,0,12.584,4.168,14.997,10.08
						c1.239-0.479,2.58-0.753,3.988-0.753c4.725,0,8.748,2.967,10.334,7.136c4.375,1.021,7.637,4.937,7.637,9.623
						c0,5.462-4.428,9.891-9.891,9.891h-42.885c-5.462,0-9.891-4.428-9.891-9.891C184.36,246.037,185.355,243.696,186.972,241.935z"
						/>
					<path fill="#EF2674" d="M473.006,123.675c-0.579-5.175-5.243-8.9-10.418-8.322c-0.579-5.175-5.243-8.9-10.418-8.322
						c-5.175,0.579-8.9,5.243-8.322,10.418l2.096,18.739l18.739-2.096C469.859,133.514,473.585,128.849,473.006,123.675z"/>
					<g>
						<g>
							<path fill="#EF2674" d="M417.935,388.43l-83.109,6.925c-1.291,22.698,9.394,44.114,9.394,44.114
								c29.824,19.241,60.361,4.748,60.361,4.748C416.154,421.517,417.935,388.43,417.935,388.43z"/>
						</g>
						<path fill="#111556" d="M556.873,92.303c-25.589-0.082-46.4,20.597-46.481,46.186c-0.001,0.392-0.352,1.098-0.591,1.672
							l-0.835,1.846l-1.882,3.682c-1.302,2.451-2.706,4.858-4.165,7.228c-2.922,4.739-6.071,9.33-9.405,13.741
							c-3.321,4.43-6.826,8.678-10.485,12.743c-3.65,4.077-7.453,7.986-11.407,11.641c-7.871,7.363-16.3,13.982-25.141,19.016
							c-4.41,2.48-8.923,4.552-13.359,5.958c-4.419,1.394-8.802,2.11-12.456,1.668c-0.382-0.045-0.799-0.08-1.19-0.095
							c-1.254-0.049-2.471,0.08-3.645,0.332c-18.341-4.637-42.164,0.768-55.765,14.863c-2.227,1.19-4.48,2.341-6.79,3.401
							c-3.616,1.691-7.348,3.17-11.122,4.577c-3.796,1.352-7.655,2.579-11.569,3.668c-7.844,2.117-15.901,3.718-24.059,4.676
							c-4.076,0.484-8.178,0.834-12.268,1.007c-0.75,0.035-1.498,0.056-2.245,0.077c0.345-2.701,0.888-5.397,1.605-8.051
							c1.677-6.135,4.308-12.058,7.958-17.396c1.807-2.681,3.836-5.245,6.122-7.608c1.095-1.23,2.345-2.314,3.535-3.472l1.902-1.617
							c0.63-0.548,1.274-1.082,1.956-1.571c5.323-4.087,11.327-7.504,17.741-10.229l0.039-0.016
							c2.277-0.965,3.535-3.496,2.846-5.938c-0.747-2.649-3.499-4.191-6.148-3.444c-7.393,2.084-14.677,5.036-21.544,9.034
							c-0.872,0.476-1.714,1.006-2.546,1.556l-2.51,1.638c-1.61,1.191-3.277,2.323-4.81,3.639c-3.152,2.526-6.085,5.371-8.787,8.442
							c-5.447,6.119-9.829,13.259-13.018,20.905c-1.588,3.829-2.906,7.781-3.874,11.854c-0.5,2.033-0.895,4.102-1.226,6.212
							c-0.162,1.057-0.302,2.124-0.412,3.225c-0.057,0.546-0.106,1.107-0.145,1.685l-0.051,0.895l-0.018,0.489
							c-0.004,0.167-0.01,0.322-0.005,0.638c0.081,4.875,3.659,9.132,8.642,9.901l0.627,0.097l0,0l2.01,0.259l1.816,0.199
							c1.198,0.122,2.381,0.225,3.56,0.315c2.356,0.173,4.701,0.309,7.038,0.38c4.677,0.163,9.34,0.127,14.004-0.064
							c9.326-0.374,18.639-1.473,27.895-3.221c3.389-0.664,6.763-1.451,10.128-2.298c-19.857,86.519-11.2,129.219-11.2,129.219
							c32.146,11.961,83.384-6.232,83.384-6.232c7.635-61.068,12.693-62.019,22.373-136.104c0.419-3.203,0.466-6.189,0.189-8.963
							c6.4-1.419,12.44-3.276,18.301-5.321c12.111-4.31,23.489-9.425,34.64-14.844c11.159-5.42,22.052-11.163,33.12-16.874
							l16.715-8.635l8.563-4.338l4.389-2.201l2.27-1.128c0.792-0.422,1.47-0.713,2.487-1.33l19.245-11.66
							c13.291-8.108,22.184-22.725,22.238-39.435C603.14,113.195,582.462,92.384,556.873,92.303z M291.674,260.105l0.016,0.017
							C291.687,260.195,291.68,260.154,291.674,260.105z"/>
						<path fill="#8ADFFE" d="M357.313,163.098c-2.485-0.073-8.168,12.823-11.036,20.356c-0.191-0.14-0.39-0.276-0.597-0.406
							c1.319-5.679,3.143-12.845,3.951-15.502c1.37-4.504,1.776-7.434-1.341-6.937c-2.329,0.372-5.31,12.743-6.817,20.788
							c-2.921-0.576-6.29-0.21-9.316,1.78c-0.931,0.612-1.767,1.205-2.515,1.789c-2.98,0.222-4.843,1.55-5.585,5.138
							c-0.224,1.085,0.161,1.757,0.922,2.114c-0.087,2.077,0.667,4.438,2.244,7.382c3.78,7.056,12.392,8.142,20.043-7.455
							c0.249-0.288,0.485-0.688,0.689-1.25c1.406-3.877,7.454-17.054,9.382-20.732C359.522,165.993,360.467,163.19,357.313,163.098z
							"/>
						<path fill="#8ADFFE" d="M404.956,124.369c-18.395-0.606-23.438,9.727-25.443,28.784c-5.719,2.108-4.173,12.281-3.655,15.363
							c0.356,2.119,1.035,3.276,2.62,4.224c0.509,11.832,4.965,20.581,14.28,23.204c0.137,24.142-16.224,26.906-5.575,33.703
							c6.687,4.268,32.65,1.877,25.658-8.042c-4.694-6.66-5.154-15.774-5.378-26.202c7.502-2.674,11.692-9.093,13.567-17.168
							C423.857,166.065,441.944,125.587,404.956,124.369z"/>
						<path fill="#111556" d="M433.683,133.873c2.529-10.121-10.398-14.398-7.588-22.746c-6.657-0.93-11.899,0.122-15.236,2.275
							c-4.84-6.55-8.652-11.474-8.652-11.474c-6.341,1.822-10.24,4.417-12.188,7.405c-4.537-1.487-7.545-2.361-7.545-2.361
							c-8.873,12.276-8.363,20.539-3.316,25.913c-2.925,5.041-1.113,13.782-0.887,26.017c0.204,11.018,6.864-9.248,7.712-21.362
							c9.093,4.129,22.183,4.731,31.156,3.684c-1.635,6.516-0.611,16.53,2.576,25.542c4.572,12.93,18.511-18.544,12.468-29.382
							C432.935,136.779,433.258,135.574,433.683,133.873z"/>
						<path fill="#8ADFFE" d="M418.958,166.266c-1.474,5.063-3.46,9.393,1.594,9.528c3.488,0.094,4.906-0.515,6.465-3.035
							c1.828-2.953,8.153-13.54,0.544-16.792C422.926,153.987,421.275,158.305,418.958,166.266z"/>
					</g>
					<g>
						<g>
							<g>
								<path fill="#0A0F3A" d="M493.886,76.098l-150.817-31.45c-5.981-1.247-11.823,2.579-13.07,8.56l-59.155,283.675
									c-1.244,5.964,2.582,11.806,8.563,13.054l150.817,31.45c5.981,1.247,11.823-2.579,13.067-8.543l59.155-283.675
									C503.693,83.187,499.867,77.345,493.886,76.098z M438.115,343.466c-0.936,4.49-5.333,7.369-9.822,6.433l-134.529-28.053
									c-4.49-0.936-7.369-5.332-6.433-9.822l50.062-240.072c0.936-4.49,5.329-7.353,9.819-6.416l134.529,28.053
									c4.49,0.936,7.372,5.316,6.436,9.806L438.115,343.466z"/>
							</g>
						</g>
						<g>
							<g>
								<circle fill="#EF2674" cx="354.992" cy="57.297" r="3.081"/>
							</g>
							<linearGradient id="SVGID_8_" gradientUnits="userSpaceOnUse" x1="362.7482" y1="58.9755" x2="366.1061" y2="58.9755">
								<stop  offset="0" style="stop-color:#EBF9FC"/>
								<stop  offset="1" style="stop-color:#FFFFFF"/>
							</linearGradient>
							<circle fill="url(#SVGID_8_)" cx="364.427" cy="58.976" r="1.679"/>
						</g>
						<linearGradient id="SVGID_9_" gradientUnits="userSpaceOnUse" x1="507.6716" y1="67.0562" x2="289.2528" y2="323.2423">
							<stop  offset="0" style="stop-color:#0081FF"/>
							<stop  offset="0.601" style="stop-color:#00A1FF;stop-opacity:0"/>
							<stop  offset="1" style="stop-color:#0086FF;stop-opacity:0.4"/>
						</linearGradient>
						<path fill="url(#SVGID_9_)" d="M438.115,343.466c-0.936,4.49-5.333,7.369-9.822,6.433l-134.529-28.053
							c-4.49-0.936-7.369-5.332-6.433-9.822l50.062-240.072c0.936-4.49,5.329-7.353,9.819-6.416l134.529,28.053
							c4.49,0.936,7.372,5.316,6.436,9.806L438.115,343.466z"/>
						<path fill="#FFFFFF" d="M403.178,203.779c-30.82,0-55.896-25.075-55.896-55.895c0-30.82,25.075-55.895,55.896-55.895
							c30.82,0,55.896,25.075,55.896,55.895C459.074,178.704,433.998,203.779,403.178,203.779z M403.178,93.28
							c-30.108,0-54.604,24.495-54.604,54.604c0,30.109,24.496,54.604,54.604,54.604c30.108,0,54.604-24.495,54.604-54.604
							C457.782,117.775,433.286,93.28,403.178,93.28z"/>
						<g>
							<linearGradient id="SVGID_10_" gradientUnits="userSpaceOnUse" x1="352.7075" y1="306.0655" x2="377.5028" y2="306.0655">
								<stop  offset="0" style="stop-color:#EBF9FC"/>
								<stop  offset="1" style="stop-color:#FFFFFF"/>
							</linearGradient>
							<circle fill="url(#SVGID_10_)" cx="365.105" cy="306.065" r="12.398"/>
							<linearGradient id="SVGID_11_" gradientUnits="userSpaceOnUse" x1="377.4899" y1="298.6346" x2="352.7204" y2="313.4963">
								<stop  offset="0" style="stop-color:#0081FF;stop-opacity:0.4"/>
								<stop  offset="1" style="stop-color:#00A1FF;stop-opacity:0"/>
							</linearGradient>
							<path fill="url(#SVGID_11_)" d="M365.105,293.668c6.847,0,12.398,5.551,12.398,12.398c0,6.847-5.551,12.398-12.398,12.398
								c-6.847,0-12.398-5.551-12.398-12.398C352.707,299.218,358.258,293.668,365.105,293.668 M365.105,291.619
								c-7.966,0-14.446,6.481-14.446,14.446c0,7.966,6.481,14.446,14.446,14.446c7.966,0,14.446-6.481,14.446-14.446
								C379.551,298.1,373.071,291.619,365.105,291.619L365.105,291.619z"/>
						</g>
						<g>
							<path fill="#FFFFFF" d="M403.662,307.27c2.398,0,4.639,1.208,5.99,3.168l-1.063,0.455l2.554,1.914l0.381-3.168l-1.123,0.48
								c-1.487-2.253-4.023-3.648-6.738-3.648c-3.782,0-7.016,2.568-7.864,6.246l0.78,0.179
								C397.342,309.585,400.255,307.27,403.662,307.27z"/>
							<path fill="#FFFFFF" d="M410.753,316.197c-0.773,3.313-3.688,5.628-7.091,5.628c-2.393,0-4.632-1.209-5.982-3.17l1.064-0.456
								l-2.555-1.912l-0.379,3.169l1.122-0.481c1.486,2.254,4.02,3.649,6.73,3.649c3.777,0,7.013-2.568,7.87-6.245L410.753,316.197z
								"/>
						</g>
					</g>
					<g>
						<path fill="#8ADFFE" d="M442.143,331.171c-1.574-1.251-3.229-2.38-4.964-3.395c-1.6-0.936-3.854-2.326-6.229-4.019
							c-4.334-3.089-12.454-12.356-10.471-4.184c1.696,6.989,4.003,10.68,5.771,12.608c0.046,0.051,0.018,0.126-0.048,0.142
							l-22.863,5.548c-1.811,0.44-3.21,2.094-3.021,3.948c0.231,2.266,2.376,3.707,4.488,3.195l1.77-0.43
							c-2.124,0.515-3.367,2.824-2.511,4.928c0.7,1.722,2.708,2.523,4.515,2.085l1.485-0.36c-2.124,0.515-3.367,2.824-2.511,4.928
							c0.701,1.722,2.708,2.523,4.515,2.085l1.485-0.36c-2.124,0.515-3.367,2.824-2.511,4.927c0.701,1.722,2.709,2.523,4.515,2.085
							l23.736-5.76c3.006-0.729,5.599-2.623,7.208-5.264l1.378-2.262c0.013-0.021,0.016-0.045,0.011-0.069l-4.453-18.349
							C443.243,332.396,442.788,331.684,442.143,331.171L442.143,331.171z"/>
						<g>
							<path fill="#0086E9" d="M462.628,355.945l-9.061,2.199c-3.105,0.753-6.261-1.17-7.015-4.275l-5.635-23.22
								c-0.753-3.105,1.17-6.261,4.275-7.015l9.061-2.199c3.105-0.753,6.261,1.17,7.015,4.275l5.635,23.219
								C467.657,352.034,465.733,355.191,462.628,355.945z"/>
						</g>
					</g>
					<path fill="#EF2674" d="M141.758,323.957c15.911-8.238,35.488-2.019,43.726,13.892c15.911-8.238,35.487-2.019,43.726,13.892
						c8.238,15.911,2.019,35.487-13.892,43.726l-57.618,29.834l-29.834-57.618C119.627,351.773,125.847,332.196,141.758,323.957z"/>
				</g>
			</g>
		</g>
	</g>
	<g>
		<g>
			<g>
				<defs>
					<rect id="SVGID_12_" x="-37" y="0.267" width="537" height="405.733"/>
				</defs>
				<clipPath id="SVGID_13_">
					<use xlink:href="#SVGID_12_"  overflow="visible"/>
				</clipPath>
			</g>
		</g>
	</g>
</g>
</svg>
